<svg width="1639" height="885" viewBox="0 0 1639 885" fill="none" xmlns="http://www.w3.org/2000/svg">
<g clip-path="url(#clip0)">
<rect width="1639" height="885" fill="white"/>
<rect x="-232.704" y="-93.962" width="1991.2" height="1094.54" fill="#AE98AA"/>
<path opacity="0.8" d="M1361.02 295.254L436.157 -48.3839L2030.18 -48.3839L1361.02 295.254Z" fill="#E0BFBF"/>
<path opacity="0.8" d="M1913 489L2582.54 1165.31L-43.3893 1059.48L1913 489Z" fill="#C4C4C4"/>
<path opacity="0.8" d="M489.072 540.243L1180.28 922.226H-141.037L489.072 540.243Z" fill="#E0BFBF"/>
<g style="mix-blend-mode:overlay">
<line x1="-173.413" y1="327.474" x2="1089.94" y2="975.688" stroke="#C5B785" stroke-width="9.92164"/>
</g>
<g style="mix-blend-mode:overlay">
<line x1="-387.169" y1="332.554" x2="1835.72" y2="-283.559" stroke="#C5B785" stroke-width="9.92164"/>
</g>
<path d="M391.428 370C383.761 370 378.061 368.3 374.328 364.9C370.661 361.433 368.828 356.167 368.828 349.1V300H376.028V349.1C376.028 354.233 377.261 358.033 379.728 360.5C382.261 362.967 386.161 364.2 391.428 364.2H413.928V370H391.428ZM426.895 300H434.095V370H426.895V300ZM506.966 300V359.6C506.966 363.133 506.233 365.767 504.766 367.5C503.3 369.167 501.033 370 497.966 370H492.866L459.966 310.8V370H453.066V300H461.666L496.666 363.7H497.366C498.366 363.7 499.066 363.333 499.466 362.6C499.866 361.867 500.066 360.567 500.066 358.7V300H506.966ZM524.746 300H549.646C556.979 300 562.779 301.133 567.046 303.4C571.379 305.667 574.513 309.333 576.446 314.4C578.379 319.467 579.346 326.333 579.346 335C579.346 343.733 578.379 350.633 576.446 355.7C574.579 360.7 571.479 364.333 567.146 366.6C562.879 368.867 557.046 370 549.646 370H524.746V300ZM549.646 364.2C555.179 364.2 559.579 363.267 562.846 361.4C566.113 359.467 568.479 356.4 569.946 352.2C571.413 347.933 572.146 342.233 572.146 335.1C572.146 327.967 571.379 322.267 569.846 318C568.379 313.733 566.013 310.633 562.746 308.7C559.479 306.767 555.113 305.8 549.646 305.8H531.946V364.2H549.646ZM615.963 371.1C609.83 371.1 604.763 370.2 600.763 368.4C596.83 366.533 593.197 363.4 589.863 359L594.763 354.7C597.63 358.567 600.597 361.3 603.663 362.9C606.797 364.5 610.763 365.3 615.563 365.3C621.83 365.3 626.663 364.1 630.063 361.7C633.53 359.3 635.263 355.933 635.263 351.6C635.263 348.867 634.63 346.7 633.363 345.1C632.097 343.5 629.863 342.133 626.663 341C623.463 339.8 618.73 338.567 612.463 337.3C605.597 335.967 600.497 333.767 597.163 330.7C593.897 327.633 592.263 323.533 592.263 318.4C592.263 312.333 594.43 307.567 598.763 304.1C603.163 300.633 609.197 298.9 616.863 298.9C622.33 298.9 627.063 299.867 631.063 301.8C635.063 303.667 638.163 306.433 640.363 310.1L635.463 314.1C633.397 311.033 630.763 308.7 627.563 307.1C624.43 305.5 620.797 304.7 616.663 304.7C611.397 304.7 607.197 305.9 604.063 308.3C600.997 310.7 599.463 313.933 599.463 318C599.463 321.6 600.83 324.467 603.563 326.6C606.297 328.667 610.797 330.333 617.063 331.6C623.663 332.933 628.763 334.433 632.363 336.1C636.03 337.767 638.63 339.8 640.163 342.2C641.697 344.533 642.463 347.6 642.463 351.4C642.463 357.8 640.197 362.7 635.663 366.1C631.13 369.433 624.563 371.1 615.963 371.1ZM676.48 370C668.68 370 662.88 368.3 659.08 364.9C655.346 361.433 653.48 356.167 653.48 349.1V320.9C653.48 313.833 655.346 308.6 659.08 305.2C662.88 301.733 668.68 300 676.48 300H700.58V305.8H676.48C671.08 305.8 667.08 307.033 664.48 309.5C661.946 311.967 660.68 315.767 660.68 320.9V332.1H695.48V337.9H660.68V349.1C660.68 354.233 661.946 358.033 664.48 360.5C667.08 362.967 671.08 364.2 676.48 364.2H701.18V370H676.48ZM730.676 340.7L706.676 300H714.676L734.476 334L753.876 300H761.976L737.876 340.7V370H730.676V340.7ZM635.7 501.1C631.367 501.1 627.667 500.467 624.6 499.2C621.6 497.867 618.733 495.667 616 492.6L620.3 488.1C622.367 490.633 624.567 492.467 626.9 493.6C629.3 494.733 632.167 495.3 635.5 495.3C640.433 495.3 644.233 494.067 646.9 491.6C649.567 489.067 650.9 485.467 650.9 480.8V430H658.1V481C658.1 487.467 656.167 492.433 652.3 495.9C648.433 499.367 642.9 501.1 635.7 501.1ZM674.648 430H681.848V500H674.648V430ZM754.72 430V489.6C754.72 493.133 753.987 495.767 752.52 497.5C751.054 499.167 748.787 500 745.72 500H740.62L707.72 440.8V500H700.82V430H709.42L744.42 493.7H745.12C746.12 493.7 746.82 493.333 747.22 492.6C747.62 491.867 747.82 490.567 747.82 488.7V430H754.72Z" fill="#DAC5AE"/>
<path opacity="0.8" d="M-195.567 157.93L968.618 -138.679L-267.626 -68.1206L-195.567 157.93Z" fill="#EBE7DC"/>
<g style="mix-blend-mode:overlay">
<path d="M1176.9 792.284L1686.63 123.78L2213.8 778.628L1176.9 792.284Z" stroke="#C5B785" stroke-width="9.92164"/>
</g>
</g>
<defs>
<clipPath id="clip0">
<rect width="1639" height="885" fill="white"/>
</clipPath>
</defs>
</svg>
